<svg xmlns="http://www.w3.org/2000/svg" width="2000" height="2000" viewBox="0 0 2000 2000">
  <defs>
    <style>
      .cls-1 {
        fill: #fff;
        fill-rule: evenodd;
      }
    </style>
  </defs>
  <path id="e" class="cls-1" d="M1194.9,510.925q-1.11-33.92-23.61-56.378-22.53-22.425-56.57-23.537h-402q-34.058,1.1-56.566,23.537Q633.623,477,632.534,510.925V1431.59a43.746,43.746,0,0,0-28.008,12.04q-11.533,10.965-11.533,28.46v79.92H1235.54v-79.92q-1.11-17.49-12.08-28.46-10.995-10.92-28.56-12.04V918.163q47.22,41.618,64.26,171.327,17.01,129.72,15.92,222.77,6.6,85.4,65.36,104.55,58.74,19.17,95.55,15.87,36.795-3.27,95.56-50.9t65.36-110.02q2.175-63.48,0-135.2-2.22-71.685-30.76-104.55-28.575-43.77-39.54-155.446-10.995-111.663-9.89-124.8,2.19,1.1,19.77-5.474t19.78-35.031q-2.22-41.591-80.19-135.2-78-93.6-201-104.546v39.41q115.335,63.5,140.59,135.2,25.26,71.713,20.87,105.641,34.035,255.088,70.85,330.055,36.78,75,19.22,149.43-29.655,119.34-99.4,125.35-69.765,6.03-91.72-84.84,6.6-298.86-46.68-378.228T1194.9,827.3V510.925h0ZM763.24,871.09q-17.582-1.077-33.5-16.421-15.935-15.318-17.025-32.842V561.283q1.082-17.5,17.025-33.39,15.909-15.857,33.5-16.968h300.95q17.565,1.1,33.5,16.968,15.915,15.882,17.03,33.39V821.827q-1.11,17.524-17.03,32.842-15.93,15.344-33.5,16.421H763.24Z"/>
</svg>
