<svg fill="white" id="Layer_1" height="512" viewBox="0 0 512 512" width="512" xmlns="http://www.w3.org/2000/svg" data-name="Layer 1"><path d="m125.731 190.079c1.876 2.927 8.765 6.585 17.585 8.464l-1.722-31.676-14.489 20.862a11.8 11.8 0 0 1 -1.638 1.86 3.44 3.44 0 0 0 .264.49z"/><path d="m102.255 108.826c-1.634-.357-4.962-.459-8.722 4.856-6.042 8.541-7.474 23.129-4.133 27.784a3.781 3.781 0 0 0 2.735 1.315l47.754-7.262-.136-2.5z"/><path d="m137.957 79.977c-1.415-1.745-4.816-1.724-6.323-1.617-9.6.684-22.4 8.847-25.43 19.469a3.409 3.409 0 0 0 .992 2.283l31.887 20.566-.457-8.387a5.023 5.023 0 0 1 4.993-5.291h.765l-6.168-25.458a11.454 11.454 0 0 1 -.259-1.565z"/><path d="m169.768 107 13.512-21.474a11.778 11.778 0 0 1 1.689-2.082c-.361-2.214-3.063-4.342-4.007-5.022-8.019-5.772-23.273-7.9-32.339-1.713a3.328 3.328 0 0 0 -.687 2.48l6.737 27.811z"/><path d="m97.455 152.087c-1.851 1.331-2.578 3.754-2.138 7.242 1.149 9.107 10.148 21.145 21.223 23.858a3.413 3.413 0 0 0 2.347-1.155l21.823-31.423-.275-5.057z"/><path d="m314.045 207.191 13.035-90.191h-8.389l-12.946 89.576a40.3 40.3 0 0 0 7.367.649c.322 0 .621-.025.933-.034z"/><path d="m278.751 393.328a4.152 4.152 0 0 0 8.218 1.188l25.63-177.3a50.194 50.194 0 0 1 -8.284-.731z"/><path d="m117.312 195.474a13.439 13.439 0 0 1 -1.186-2.314 10.209 10.209 0 0 1 -1.966-.26c-15.734-3.856-27.181-19.777-28.764-32.318a20.6 20.6 0 0 1 .77-9.229 13.261 13.261 0 0 1 -4.89-4.056c-6.743-9.394-3.337-28.888 4.093-39.391 3.092-4.372 6.857-7.247 10.929-8.492a10.908 10.908 0 0 1 .29-4.327c4.361-15.293 21.218-25.767 34.335-26.7a20.132 20.132 0 0 1 10.245 1.675 10.346 10.346 0 0 1 1.818-1.606c13.082-8.921 32.93-5.986 43.818 1.852a19.786 19.786 0 0 1 7.5 9.3 10.076 10.076 0 0 1 1.688.178c13.315 2.645 23.564 15.214 26.434 27.214h7.374c-11.833-30-41.62-50.913-74.672-50.913-44.159 0-80.085 35.82-80.085 79.832a80.061 80.061 0 0 0 69.163 79.058l-.334-6.148c-10.605-1.829-22.096-6.388-26.56-13.355z"/><path d="m191.746 90.85-10.166 16.15h30.448c-2.729-8-9.76-15.779-17.988-17.414a3.363 3.363 0 0 0 -2.294 1.264z"/><path d="m227.833 198.039c4.226-3.132 8.8-6.506 15.088-8.714l-28.238-12.644-13.649 30.484c.756.037 1.534.06 2.345.06 12.065 0 17.807-4.257 24.454-9.186z"/><path d="m205 250h44v44h-44z"/><path d="m324.377 205.608c5.225-1.679 9.031-4.491 13.193-7.576 6.446-4.778 13.7-10.131 26.631-11.017l3.807-70.015h-30.823z"/><path d="m322.833 216.313-25.966 179.634a14.221 14.221 0 0 1 -14 12.129 14.387 14.387 0 0 1 -2.04-.146 14.147 14.147 0 0 1 -11.978-16.025l25.782-178.353a63.151 63.151 0 0 1 -11.931-7.452c-4.686-3.473-8.931-6.575-15.247-8.127a9.883 9.883 0 0 1 -.423 1.242l-18.206 40.785h1.259a8.746 8.746 0 0 1 8.917 8.826v46.025a9.02 9.02 0 0 1 -8.917 9.149h-46.024a9.14 9.14 0 0 1 -9.059-9.149v-46.025a8.867 8.867 0 0 1 9.059-8.826h12.174l-25.669-11.627a9.229 9.229 0 0 1 -4.57-12.114l.863-1.953c-5.681-2.2-9.933-5.4-13.887-8.334-5.71-4.233-10.762-8.063-19.715-9.033l13.445 247.061h183.5l13.449-247.111c-9.217.9-14.33 4.885-20.129 9.184-5.382 3.993-11.332 8.385-20.687 10.24zm-147.625 109.432a5 5 0 0 1 9.981-.613l.386 6.284a5 5 0 0 1 -4.684 5.3c-.1.006-.208.009-.311.009a5 5 0 0 1 -4.986-4.693zm10.9 95.807c-.1.007-.208.01-.311.01a5 5 0 0 1 -4.986-4.694l-4.051-65.875a5 5 0 1 1 9.982-.614l4.05 65.876a5 5 0 0 1 -4.684 5.297z"/><path d="m432.8 31h-87.514a16.426 16.426 0 0 0 -16.186 14l-8.964 62h8.389l8.792-60.963a8.218 8.218 0 0 1 7.969-7.037h87.514a4 4 0 1 0 0-8z"/><path d="m195.5 219.519 42.84 19.181 18.711-41.787c-11.246.275-16.841 4.4-23.262 9.158-7.051 5.228-15.042 11.153-30.41 11.153a52.348 52.348 0 0 1 -6.661-.422z"/><path d="m168.531 477.834a3.316 3.316 0 0 0 3.13 3.166h173.585a3.316 3.316 0 0 0 3.13-3.167l1.285-23.833h-182.415z"/><path d="m190.95 205.215 14.988-33.473a9.08 9.08 0 0 1 11.981-4.57l44.393 19.875c12.752.945 19.945 6.243 26.343 10.985a70.72 70.72 0 0 0 7.488 5.071l12.444-86.103h-159.687l3.809 70.046c12.675.97 19.841 6.266 26.218 10.993 3.842 2.85 7.389 5.468 12.023 7.176z"/></svg>