<svg fill="white" id="Layer_1" enable-background="new 0 0 499.705 499.705" height="512" viewBox="0 0 499.705 499.705" width="512" xmlns="http://www.w3.org/2000/svg"><g><path d="m28.024 362.509h98.345v120h-98.345z" transform="matrix(.707 -.707 .707 .707 -276.149 178.337)"/><path d="m373.336 17.197h98.345v120h-98.345z" transform="matrix(.707 -.707 .707 .707 69.164 321.369)"/><path d="m387.738 239.246 42.426-42.427-127.278-127.279-42.427 42.427-21.213-21.213-63.64 63.64 169.706 169.705 63.639-63.64z"/><path d="m102.271 94.77h29.999v45h-29.999z" transform="matrix(.707 -.707 .707 .707 -48.575 117.269)"/><path d="m161.893 47.041h30v45h-30z"/><path d="m48.328 160.606h45v30h-45z"/><path d="m367.435 359.935h30v44.999h-30z" transform="matrix(.707 -.707 .707 .707 -158.41 382.434)"/><path d="m407.665 307.811h45v30h-45z"/><path d="m309.099 406.378h30v45h-30z"/><path d="m154.393 175.606-106.065 106.066 169.705 169.706 106.066-106.066zm53.033 180.312-63.64-63.64 21.214-21.213 63.639 63.64z"/></g></svg>