<?xml version="1.0" encoding="utf-8"?>
<!-- Generator: Adobe Illustrator 24.0.1, SVG Export Plug-In . SVG Version: 6.00 Build 0)  -->
<svg version="1.1" fill="white" id="Layer_1" xmlns="http://www.w3.org/2000/svg" xmlns:xlink="http://www.w3.org/1999/xlink" x="0px" y="0px"
	 viewBox="0 0 500 500" style="enable-background:new 0 0 500 500;" xml:space="preserve">
<style type="text/css">
	.st0{fill:transparent;}
</style>
<g>
	<g>
		<rect class="st0" width="500" height="500"/>
	</g>
</g>
<g>
	<path d="M303.56,181.7L175.21,294.91l4.8-74.07c0-27.46,21.48-49.71,47.98-49.71h8.54v-8.33c-12.39-5.55-21.03-17.97-21.03-32.41
		c0-19.6,15.89-35.49,35.49-35.49c19.6,0,35.49,15.89,35.49,35.49c0,14.45-8.64,26.87-21.03,32.41v8.33h8.54
		C285.14,171.13,295.41,175.08,303.56,181.7z"/>
	<path d="M325.76,279.43c-23.29-6.06-51.93-10.46-82.16-8.03l75.74-66.8c1.71,5.09,2.63,10.55,2.63,16.25L325.76,279.43z"/>
	<path d="M328.53,322.29l-12.01,75.64c-0.64,4.13-4.21,7.16-8.39,7.16h-18.28c-5.22,0-9.21-4.67-8.39-9.82l11.58-72.99h-84.12
		l11.58,72.99c0.83,5.15-3.17,9.82-8.39,9.82h-18.28c-4.18,0-7.74-3.04-8.39-7.16l-10.48-66L201,308.98
		c45.31-17.55,93.59-9.95,126.66-0.2L328.53,322.29z"/>
	<path d="M173.43,322.29l1.54,9.65l-41.04,36.2c-2.63,2.3-5.89,3.44-9.14,3.44c-3.81,0-7.62-1.58-10.34-4.67
		c-5.05-5.72-4.5-14.45,1.21-19.49l59.54-52.51L173.43,322.29z"/>
	<path d="M367.9,161.76l-48.57,42.84c-3.04-9.14-8.58-17.05-15.77-22.9l46.07-40.63c5.72-5.05,14.45-4.51,19.49,1.21
		C374.16,148,373.6,156.73,367.9,161.76z"/>
	<path class="st0" d="M327.65,308.78c-33.07-9.75-81.35-17.35-126.66,0.2l-26.03,22.96l-1.54-9.65l1.77-27.38L303.56,181.7
		c7.19,5.85,12.74,13.76,15.77,22.9l-75.74,66.8c30.23-2.43,58.87,1.97,82.16,8.03L327.65,308.78z"/>
	<path d="M387.38,318.93c-2.48,4.65-7.27,7.31-12.2,7.31c-2.18,0-4.4-0.51-6.47-1.62c-0.53-0.28-16.65-8.64-41.06-15.84l-1.89-29.35
		c32.1,8.33,54.02,19.81,55.93,20.82C388.42,303.84,390.96,312.2,387.38,318.93z"/>
</g>
</svg>
