<svg fill= "red" height="512" viewBox="0 0 512 512" width="512" xmlns="http://www.w3.org/2000/svg"><path d="m209.372 262.059h29.255v51.883h-29.255z" transform="matrix(.707 -.707 .707 .707 -138.039 242.747)"/><path d="m237.657 333.657a8 8 0 0 1 -11.314 0l-48-48a8 8 0 0 1 0-11.314l26.343-26.343-12.686-12.687-76.686 76.687 10.342 10.342 64 64 10.344 10.345 76.686-76.687-12.686-12.686zm-88-8-11.314-11.314 24-24 11.314 11.314z"/><path d="m27.314 432 52.686 52.687 92.686-92.687-52.686-52.687zm26.343 13.657-11.314-11.314 42.5-42.5 11.314 11.314zm51.833-51.833-11.313-11.313 12.166-12.168 11.314 11.313z"/><path d="m273.373 209.373h29.254v29.254h-29.254z" transform="matrix(.707 -.707 .707 .707 -74.038 269.263)"/><path d="m362.348 213.662-74.348-74.349-20.687 20.687 84.687 84.687 20.687-20.687z"/><path d="m484.686 80-52.686-52.687-116.686 116.687 52.686 52.686zm-82.343-5.657 11.314 11.313-12.167 12.168-11.313-11.313zm-64 64 42.5-42.5 11.314 11.314-42.5 42.5z"/><path d="m248 48h16v48h-16z"/><path d="m248 416h16v48h-16z"/><path d="m48 248h48v16h-48z"/><path d="m416 248h48v16h-48z"/><path d="m117.892 101.893h16v48h-16z" transform="matrix(.707 -.707 .707 .707 -52.146 125.891)"/><path d="m378.107 362.107h16v48h-16z" transform="matrix(.707 -.707 .707 .707 -159.931 386.104)"/></svg>